<svg width="75" height="75" viewBox="0 0 75 75" fill="none" xmlns="http://www.w3.org/2000/svg">
<path d="M44.25 5.62916L61.726 15.7189C65.9029 18.1305 68.476 22.5872 68.476 27.4103V47.5897C68.476 52.4128 65.9029 56.8695 61.726 59.2811L44.25 69.3708C40.0731 71.7824 34.9269 71.7824 30.75 69.3708L13.274 59.2811C9.09713 56.8695 6.52405 52.4128 6.52405 47.5897L6.52405 27.4103C6.52405 22.5872 9.09713 18.1305 13.274 15.7189L30.75 5.62917C34.9269 3.21762 40.0731 3.21762 44.25 5.62916Z" fill="#D8D8D8" stroke="#5E5E5E" stroke-width="3"/>
<path fill-rule="evenodd" clip-rule="evenodd" d="M15.071 16.3219L13.2717 17.5403C9.97487 19.7727 8 23.495 8 27.4766V47.8082C8 52.103 10.2953 56.0704 14.0185 58.2112L31.8171 68.445C35.6279 70.6361 40.3318 70.5682 44.0777 68.2681L59.4152 58.8503L15.071 16.3219Z" fill="white"/>
</svg>
