<svg width="225" height="33" viewBox="0 0 225 33" fill="none" xmlns="http://www.w3.org/2000/svg">
<mask id="mask0_31_581" style="mask-type:alpha" maskUnits="userSpaceOnUse" x="3" y="3" width="29" height="28">
<path d="M14.4643 5.81052C15.7478 3.32699 19.2814 3.27636 20.6356 5.72209L22.4787 9.0509C22.9956 9.98447 23.9102 10.6312 24.9627 10.8075L28.4775 11.396C31.2874 11.8665 32.3879 15.3179 30.369 17.3281L28.0015 19.6855C27.2312 20.4525 26.861 21.534 26.9997 22.6122L27.4712 26.2778C27.8338 29.0968 24.8627 31.1497 22.3542 29.8133L19.2648 28.1675C18.2596 27.6319 17.0565 27.6191 16.04 28.133L12.8165 29.7627C10.2847 31.0427 7.3619 28.937 7.77449 26.1302L8.28512 22.6566C8.44725 21.5536 8.07428 20.4394 7.28084 19.6564L4.91058 17.3172C2.87111 15.3044 3.98225 11.8277 6.811 11.3708L10.2846 10.8098C11.3799 10.6329 12.3264 9.94714 12.8358 8.96151L14.4643 5.81052Z" fill="#D9D9D9"/>
</mask>
<g mask="url(#mask0_31_581)">
<path d="M7.31942 29.4991L6.79407 32.8163L17.5205 27.2416L28.247 32.8163L26.3685 20.9549L34.8763 12.6468L29.8333 11.8945C24.4365 21.4728 12.9613 27.4692 7.31942 29.4991Z" fill="#FFBB00"/>
<path d="M22.7739 10.8414L17.5204 0.181335L12.267 10.8414L0.164673 12.6468L8.67249 20.9548L7.31934 29.499C12.9612 27.4691 24.4364 21.4728 29.8332 11.8945L22.7739 10.8414Z" fill="#FFCC00"/>
</g>
<mask id="mask1_31_581" style="mask-type:alpha" maskUnits="userSpaceOnUse" x="51" y="3" width="28" height="28">
<path d="M61.9152 5.81052C63.1988 3.32699 66.7323 3.27636 68.0865 5.72209L69.9296 9.0509C70.4465 9.98447 71.3611 10.6312 72.4136 10.8075L75.9284 11.396C78.7383 11.8665 79.8388 15.3179 77.82 17.3281L75.4525 19.6855C74.6821 20.4525 74.312 21.534 74.4506 22.6122L74.9221 26.2778C75.2847 29.0968 72.3136 31.1497 69.8051 29.8133L66.7158 28.1675C65.7105 27.6319 64.5075 27.6191 63.491 28.133L60.2674 29.7627C57.7357 31.0427 54.8128 28.937 55.2254 26.1302L55.736 22.6566C55.8982 21.5536 55.5252 20.4394 54.7318 19.6564L52.3615 17.3172C50.322 15.3044 51.4332 11.8277 54.2619 11.3708L57.7355 10.8098C58.8308 10.6329 59.7773 9.94714 60.2867 8.96151L61.9152 5.81052Z" fill="#D9D9D9"/>
</mask>
<g mask="url(#mask1_31_581)">
<path d="M54.7703 29.4991L54.245 32.8163L64.9715 27.2416L75.6979 32.8163L73.8194 20.9549L82.3272 12.6468L77.2842 11.8945C71.8874 21.4728 60.4122 27.4692 54.7703 29.4991Z" fill="#FFBB00"/>
</g>
<mask id="mask2_31_581" style="mask-type:alpha" maskUnits="userSpaceOnUse" x="51" y="3" width="28" height="28">
<path d="M61.9152 5.81052C63.1988 3.32699 66.7323 3.27636 68.0865 5.72209L69.9296 9.0509C70.4465 9.98447 71.3611 10.6312 72.4136 10.8075L75.9284 11.396C78.7383 11.8665 79.8388 15.3179 77.82 17.3281L75.4525 19.6855C74.6821 20.4525 74.312 21.534 74.4506 22.6122L74.9221 26.2778C75.2847 29.0968 72.3136 31.1497 69.8051 29.8133L66.7158 28.1675C65.7105 27.6319 64.5075 27.6191 63.491 28.133L60.2674 29.7627C57.7357 31.0427 54.8128 28.937 55.2254 26.1302L55.736 22.6566C55.8982 21.5536 55.5252 20.4394 54.7318 19.6564L52.3615 17.3172C50.322 15.3044 51.4332 11.8277 54.2619 11.3708L57.7355 10.8098C58.8308 10.6329 59.7773 9.94714 60.2867 8.96151L61.9152 5.81052Z" fill="#D9D9D9"/>
</mask>
<g mask="url(#mask2_31_581)">
<path d="M70.2249 10.8414L64.9714 0.181335L59.7179 10.8414L47.6156 12.6468L56.1234 20.9548L54.7703 29.499C60.4121 27.4691 71.8874 21.4728 77.2841 11.8945L70.2249 10.8414Z" fill="#FFCC00"/>
</g>
<mask id="mask3_31_581" style="mask-type:alpha" maskUnits="userSpaceOnUse" x="98" y="3" width="29" height="28">
<path d="M109.366 5.81052C110.649 3.32699 114.183 3.27636 115.537 5.72209L117.38 9.0509C117.897 9.98447 118.812 10.6312 119.864 10.8075L123.379 11.396C126.189 11.8665 127.29 15.3179 125.271 17.3281L122.903 19.6855C122.133 20.4525 121.763 21.534 121.901 22.6122L122.373 26.2778C122.735 29.0968 119.764 31.1497 117.256 29.8133L114.166 28.1675C113.161 27.6319 111.958 27.6191 110.942 28.133L107.718 29.7627C105.186 31.0427 102.264 28.937 102.676 26.1302L103.187 22.6566C103.349 21.5536 102.976 20.4394 102.182 19.6564L99.8122 17.3172C97.7727 15.3044 98.8839 11.8277 101.713 11.3708L105.186 10.8098C106.281 10.6329 107.228 9.94714 107.737 8.96151L109.366 5.81052Z" fill="#D9D9D9"/>
</mask>
<g mask="url(#mask3_31_581)">
<path d="M102.221 29.4991L101.696 32.8163L112.422 27.2416L123.149 32.8163L121.27 20.9549L129.778 12.6468L124.735 11.8945C119.338 21.4728 107.863 27.4692 102.221 29.4991Z" fill="#FFBB00"/>
</g>
<mask id="mask4_31_581" style="mask-type:alpha" maskUnits="userSpaceOnUse" x="98" y="3" width="29" height="28">
<path d="M109.366 5.81052C110.649 3.32699 114.183 3.27636 115.537 5.72209L117.38 9.0509C117.897 9.98447 118.812 10.6312 119.864 10.8075L123.379 11.396C126.189 11.8665 127.29 15.3179 125.271 17.3281L122.903 19.6855C122.133 20.4525 121.763 21.534 121.901 22.6122L122.373 26.2778C122.735 29.0968 119.764 31.1497 117.256 29.8133L114.166 28.1675C113.161 27.6319 111.958 27.6191 110.942 28.133L107.718 29.7627C105.186 31.0427 102.264 28.937 102.676 26.1302L103.187 22.6566C103.349 21.5536 102.976 20.4394 102.182 19.6564L99.8122 17.3172C97.7727 15.3044 98.8839 11.8277 101.713 11.3708L105.186 10.8098C106.281 10.6329 107.228 9.94714 107.737 8.96151L109.366 5.81052Z" fill="#D9D9D9"/>
</mask>
<g mask="url(#mask4_31_581)">
<path d="M117.676 10.8414L112.422 0.181335L107.169 10.8414L95.0663 12.6468L103.574 20.9548L102.221 29.499C107.863 27.4691 119.338 21.4728 124.735 11.8945L117.676 10.8414Z" fill="#FFCC00"/>
</g>
<mask id="mask5_31_581" style="mask-type:alpha" maskUnits="userSpaceOnUse" x="146" y="3" width="28" height="28">
<path d="M156.817 5.81052C158.1 3.32699 161.634 3.27636 162.988 5.72209L164.831 9.0509C165.348 9.98447 166.263 10.6312 167.315 10.8075L170.83 11.396C173.64 11.8665 174.74 15.3179 172.722 17.3281L170.354 19.6855C169.584 20.4525 169.214 21.534 169.352 22.6122L169.824 26.2778C170.186 29.0968 167.215 31.1497 164.707 29.8133L161.617 28.1675C160.612 27.6319 159.409 27.6191 158.393 28.133L155.169 29.7627C152.637 31.0427 149.714 28.937 150.127 26.1302L150.638 22.6566C150.8 21.5536 150.427 20.4394 149.633 19.6564L147.263 17.3172C145.224 15.3044 146.335 11.8277 149.164 11.3708L152.637 10.8098C153.732 10.6329 154.679 9.94714 155.188 8.96151L156.817 5.81052Z" fill="#D9D9D9"/>
</mask>
<g mask="url(#mask5_31_581)">
<path d="M149.672 29.4991L149.147 32.8163L159.873 27.2416L170.6 32.8163L168.721 20.9549L177.229 12.6468L172.186 11.8945C166.789 21.4728 155.314 27.4692 149.672 29.4991Z" fill="#FFBB00"/>
</g>
<mask id="mask6_31_581" style="mask-type:alpha" maskUnits="userSpaceOnUse" x="146" y="3" width="28" height="28">
<path d="M156.817 5.81052C158.1 3.32699 161.634 3.27636 162.988 5.72209L164.831 9.0509C165.348 9.98447 166.263 10.6312 167.315 10.8075L170.83 11.396C173.64 11.8665 174.74 15.3179 172.722 17.3281L170.354 19.6855C169.584 20.4525 169.214 21.534 169.352 22.6122L169.824 26.2778C170.186 29.0968 167.215 31.1497 164.707 29.8133L161.617 28.1675C160.612 27.6319 159.409 27.6191 158.393 28.133L155.169 29.7627C152.637 31.0427 149.714 28.937 150.127 26.1302L150.638 22.6566C150.8 21.5536 150.427 20.4394 149.633 19.6564L147.263 17.3172C145.224 15.3044 146.335 11.8277 149.164 11.3708L152.637 10.8098C153.732 10.6329 154.679 9.94714 155.188 8.96151L156.817 5.81052Z" fill="#D9D9D9"/>
</mask>
<g mask="url(#mask6_31_581)">
<path d="M165.126 10.8414L159.873 0.181335L154.62 10.8414L142.517 12.6468L151.025 20.9548L149.672 29.499C155.314 27.4691 166.789 21.4728 172.186 11.8945L165.126 10.8414Z" fill="#FFCC00"/>
</g>
<mask id="mask7_31_581" style="mask-type:alpha" maskUnits="userSpaceOnUse" x="193" y="3" width="29" height="28">
<path d="M204.363 5.85005C205.644 3.35703 209.19 3.30638 210.542 5.76179L212.35 9.04621C212.866 9.98257 213.781 10.632 214.835 10.8095L218.312 11.395C221.116 11.8671 222.217 15.308 220.208 17.3196L217.843 19.6875C217.078 20.4536 216.71 21.5307 216.848 22.6048L217.316 26.2638C217.677 29.0857 214.699 31.1364 212.191 29.793L209.173 28.176C208.164 27.6355 206.954 27.6225 205.934 28.1413L202.782 29.7437C200.251 31.0304 197.322 28.9269 197.733 26.1175L198.24 22.6489C198.401 21.5503 198.03 20.4406 197.242 19.6584L194.875 17.3088C192.845 15.2945 193.957 11.8283 196.779 11.3698L200.215 10.8118C201.311 10.6337 202.258 9.94526 202.766 8.95694L204.363 5.85005Z" fill="#D9D9D9"/>
</mask>
<g mask="url(#mask7_31_581)">
<path d="M197.279 29.4991L196.756 32.8163L207.423 27.2416L218.089 32.8163L216.221 20.9549L224.681 12.6468L219.667 11.8945C214.3 21.4728 202.889 27.4692 197.279 29.4991Z" fill="#B8B8B8"/>
</g>
<mask id="mask8_31_581" style="mask-type:alpha" maskUnits="userSpaceOnUse" x="193" y="3" width="29" height="28">
<path d="M204.363 5.85005C205.644 3.35703 209.19 3.30638 210.542 5.76179L212.35 9.04621C212.866 9.98257 213.781 10.632 214.835 10.8095L218.312 11.395C221.116 11.8671 222.217 15.308 220.208 17.3196L217.843 19.6875C217.078 20.4536 216.71 21.5307 216.848 22.6048L217.316 26.2638C217.677 29.0857 214.699 31.1364 212.191 29.793L209.173 28.176C208.164 27.6355 206.954 27.6225 205.934 28.1413L202.782 29.7437C200.251 31.0304 197.322 28.9269 197.733 26.1175L198.24 22.6489C198.401 21.5503 198.03 20.4406 197.242 19.6584L194.875 17.3088C192.845 15.2945 193.957 11.8283 196.779 11.3698L200.215 10.8118C201.311 10.6337 202.258 9.94526 202.766 8.95694L204.363 5.85005Z" fill="#D9D9D9"/>
</mask>
<g mask="url(#mask8_31_581)">
<path d="M212.647 10.8415L207.423 0.181396L202.198 10.8415L190.164 12.6468L198.624 20.9549L197.278 29.4991C202.889 27.4692 214.3 21.4729 219.666 11.8945L212.647 10.8415Z" fill="#989898"/>
</g>
<mask id="mask9_31_581" style="mask-type:alpha" maskUnits="userSpaceOnUse" x="193" y="3" width="15" height="30">
<rect x="193" y="3" width="15" height="30" fill="#D9D9D9"/>
</mask>
<g mask="url(#mask9_31_581)">
<mask id="mask10_31_581" style="mask-type:alpha" maskUnits="userSpaceOnUse" x="193" y="3" width="29" height="28">
<path d="M204.464 5.81052C205.748 3.32699 209.281 3.27636 210.636 5.72209L212.479 9.0509C212.996 9.98447 213.91 10.6312 214.963 10.8075L218.477 11.396C221.287 11.8665 222.388 15.3179 220.369 17.3281L218.002 19.6855C217.231 20.4525 216.861 21.534 217 22.6122L217.471 26.2778C217.834 29.0968 214.863 31.1497 212.354 29.8133L209.265 28.1675C208.26 27.6319 207.057 27.6191 206.04 28.133L202.816 29.7627C200.285 31.0427 197.362 28.937 197.774 26.1302L198.285 22.6566C198.447 21.5536 198.074 20.4394 197.281 19.6564L194.911 17.3172C192.871 15.3044 193.982 11.8277 196.811 11.3708L200.285 10.8098C201.38 10.6329 202.326 9.94714 202.836 8.96151L204.464 5.81052Z" fill="#D9D9D9"/>
</mask>
<g mask="url(#mask10_31_581)">
<path d="M197.319 29.4991L196.794 32.8163L207.521 27.2416L218.247 32.8163L216.369 20.9549L224.876 12.6468L219.833 11.8945C214.437 21.4728 202.961 27.4692 197.319 29.4991Z" fill="#FFBB00"/>
</g>
<mask id="mask11_31_581" style="mask-type:alpha" maskUnits="userSpaceOnUse" x="193" y="3" width="29" height="28">
<path d="M204.464 5.81052C205.748 3.32699 209.281 3.27636 210.636 5.72209L212.479 9.0509C212.996 9.98447 213.91 10.6312 214.963 10.8075L218.477 11.396C221.287 11.8665 222.388 15.3179 220.369 17.3281L218.002 19.6855C217.231 20.4525 216.861 21.534 217 22.6122L217.471 26.2778C217.834 29.0968 214.863 31.1497 212.354 29.8133L209.265 28.1675C208.26 27.6319 207.057 27.6191 206.04 28.133L202.816 29.7627C200.285 31.0427 197.362 28.937 197.774 26.1302L198.285 22.6566C198.447 21.5536 198.074 20.4394 197.281 19.6564L194.911 17.3172C192.871 15.3044 193.982 11.8277 196.811 11.3708L200.285 10.8098C201.38 10.6329 202.326 9.94714 202.836 8.96151L204.464 5.81052Z" fill="#D9D9D9"/>
</mask>
<g mask="url(#mask11_31_581)">
<path d="M212.774 10.8414L207.52 0.181335L202.267 10.8414L190.165 12.6468L198.672 20.9548L197.319 29.499C202.961 27.4691 214.436 21.4728 219.833 11.8945L212.774 10.8414Z" fill="#FFCC00"/>
</g>
</g>
</svg>
